<svg version="1.2" xmlns="http://www.w3.org/2000/svg" viewBox="0 0 50 45" width="50" height="45"><style>.a{fill:#a3bbc8}</style><path fill-rule="evenodd" class="a" d="m47.3 32.2v8.2c0 2.1-1.8 3.9-3.9 3.9h-39.3c-2.1 0-3.8-1.8-3.8-3.9v-23.6c0-2.1 1.7-3.8 3.8-3.8h25.1c0.5 0 0.9 0.3 0.9 0.8 0 0.5-0.4 0.8-0.9 0.8h-25.1c-1.2 0-2.2 1-2.2 2.2v2.9h9.9c0.5 0 0.8 0.4 0.8 0.8 0 0.5-0.3 0.9-0.8 0.9h-9.9v5.4h27.3c0.5 0 0.9 0.4 0.9 0.9 0 0.4-0.4 0.8-0.9 0.8h-27.3v11.9c0 1.2 1 2.2 2.2 2.2h39.3c1.2 0 2.2-1 2.2-2.2v-8.2c0-0.5 0.4-0.9 0.8-0.9 0.5 0 0.9 0.4 0.9 0.9zm-17.2-11.7c0 0.5-0.4 0.9-0.9 0.9h-14.2c-0.5 0-0.8-0.4-0.8-0.9 0-0.4 0.3-0.8 0.8-0.8h14.2c0.5 0 0.9 0.4 0.9 0.8zm-9.3 11.6c0 0.4-0.4 0.8-0.8 0.8h-14.3c-0.5 0-0.8-0.4-0.8-0.8 0-0.5 0.3-0.9 0.8-0.9h14.3c0.4 0 0.8 0.4 0.8 0.9zm-6.1 4c0 0.4-0.3 0.8-0.8 0.8h-8.2c-0.5 0-0.8-0.4-0.8-0.8 0-0.5 0.3-0.9 0.8-0.9h8.2c0.5 0 0.8 0.4 0.8 0.9zm33-15.3v-4.8c0-0.7-0.6-1.4-1.4-1.4h-11.9c-0.7 0-1.3 0.7-1.3 1.4v10.8c0 0.7 0.6 1.3 1.3 1.3h11.9c0.8 0 1.4-0.6 1.4-1.3v-3.2c0-0.5 0.4-0.9 0.8-0.9 0.5 0 0.9 0.4 0.9 0.9v3.2c0 1.6-1.4 3-3.1 3h-11.9c-1.6 0-3-1.4-3-3v-10.8c0-1.4 1-2.7 2.4-3v-6c0-3.6 2.9-6.6 6.6-6.6 3.6 0 6.6 3 6.6 6.6v6c1.3 0.3 2.4 1.6 2.4 3v4.8c0 0.4-0.4 0.8-0.9 0.8-0.4 0-0.8-0.4-0.8-0.8zm-2.4-7.8v-6c0-2.7-2.2-4.9-4.9-4.9-2.7 0-4.9 2.2-4.9 4.9v6zm-1.9 7.4c0 1.4-0.9 2.6-2.2 3v2c0 0.5-0.4 0.8-0.9 0.8-0.4 0-0.8-0.3-0.8-0.8v-2c-1.3-0.4-2.3-1.6-2.3-3 0-1.7 1.4-3.1 3.1-3.1 1.7 0 3.1 1.4 3.1 3.1zm-1.6 0c0-0.8-0.7-1.4-1.5-1.4-0.7 0-1.4 0.6-1.4 1.4 0 0.8 0.7 1.4 1.4 1.4 0.8 0 1.5-0.6 1.5-1.4z"/></svg>