<svg version="1.2" xmlns="http://www.w3.org/2000/svg" viewBox="0 0 49 50" width="49" height="50"><style>.a{fill:#a3bbc8}</style><path class="a" d="m49 24.6c0 13.6-11 24.6-24.5 24.6-5.4 0-10.5-1.7-14.8-4.9-0.4-0.3-0.5-0.9-0.2-1.3 0.4-0.4 0.9-0.5 1.4-0.2 3.9 3 8.6 4.5 13.6 4.5 12.5 0 22.6-10.1 22.6-22.7 0-4.2-1.1-8.3-3.4-11.9-0.3-0.5-0.1-1.1 0.3-1.3 0.5-0.3 1-0.2 1.3 0.3 2.4 3.9 3.7 8.3 3.7 12.9zm-25.8 9.9c0 0.6-0.4 1-0.9 1h-9.8c-0.4 0-0.8-0.2-0.9-0.6-0.1-0.3-0.1-0.7 0.2-1l6.3-6.4c2.1-2 3.2-4.8 3.2-7.7 0-2.2-1.7-3.9-3.9-3.9-2.2 0-4 1.7-4 3.9 0 0.5-0.4 1-0.9 1-0.5 0-1-0.5-1-1 0-3.2 2.7-5.8 5.9-5.8 3.2 0 5.8 2.6 5.8 5.8 0 3.4-1.3 6.7-3.7 9.1l-4.8 4.7h7.6c0.5 0 0.9 0.4 0.9 0.9zm15.1-6.4c0 0.5-0.5 0.9-1 0.9h-2.6v5.5c0 0.6-0.4 1-0.9 1-0.5 0-1-0.4-1-1v-5.5h-6.9c-0.3 0-0.6-0.1-0.8-0.4-0.2-0.3-0.2-0.7 0-1l7.9-13.2c0.2-0.4 0.8-0.6 1.3-0.3 0.3 0.2 0.4 0.5 0.4 0.8q0 0 0 0v7.6c0 0.5-0.4 1-0.9 1-0.5 0-1-0.5-1-1v-4.2l-5.2 8.9h5.2v-1.5c0-0.6 0.5-1 1-1 0.5 0 0.9 0.4 0.9 1v1.5h2.6c0.5 0 1 0.4 1 0.9zm4.4-19.5c0.1 0.5-0.4 0.9-0.9 1l-4 0.1q0 0-0.1 0c-0.5 0-0.9-0.5-0.9-1 0-0.5 0.4-0.9 0.9-0.9l1.9-0.1c-4.2-3.7-9.6-5.7-15.1-5.7-12.5 0-22.7 10.1-22.7 22.7 0 6.1 2.4 11.8 6.8 16.1 0.4 0.4 0.4 1 0 1.4q-0.3 0.2-0.7 0.2-0.3 0-0.6-0.2c-4.8-4.7-7.4-10.9-7.4-17.6 0-13.5 11-24.5 24.6-24.5 3.4 0 6.8 0.7 10 2.1q3.5 1.6 6.3 4.1v-1.7c0-0.5 0.4-1 0.9-1 0.5 0 0.9 0.4 1 0.9z"/></svg>